<svg width="24" height="21" viewBox="0 0 24 21" fill="none" xmlns="http://www.w3.org/2000/svg">
<path d="M1.70294 20.6152C1.30575 20.6158 0.920816 20.4963 0.614974 20.2772C0.442839 20.1538 0.300551 20.0023 0.196255 19.8314C0.0919599 19.6604 0.027708 19.4733 0.00717962 19.2809C-0.0133488 19.0884 0.01025 18.8943 0.0766237 18.7098C0.142997 18.5252 0.250841 18.3538 0.39398 18.2053L8.00976 10.3291L0.665974 2.43816C0.524766 2.28785 0.419315 2.1149 0.355682 1.92925C0.29205 1.7436 0.271491 1.54892 0.295187 1.35638C0.318883 1.16384 0.386366 0.977246 0.493758 0.807324C0.601151 0.637403 0.746335 0.487503 0.920966 0.36624C1.09685 0.232467 1.30283 0.131564 1.52597 0.0698637C1.74911 0.00816314 1.98459 -0.0130023 2.21765 0.00769467C2.4507 0.0283916 2.67628 0.0905046 2.88025 0.190136C3.08421 0.289767 3.26215 0.424764 3.40289 0.586657L11.6137 9.40332C11.8637 9.66625 12.0004 9.99605 12.0004 10.3364C12.0004 10.6768 11.8637 11.0066 11.6137 11.2695L3.1139 20.0862C2.94337 20.264 2.72674 20.4046 2.48159 20.4965C2.23644 20.5884 1.96968 20.6291 1.70294 20.6152Z" fill="#6A98BF"/>
<path d="M13.7025 20.6152C13.3053 20.6158 12.9203 20.4963 12.6145 20.2772C12.4424 20.1538 12.3001 20.0023 12.1958 19.8314C12.0915 19.6604 12.0272 19.4733 12.0067 19.2809C11.9862 19.0884 12.0098 18.8943 12.0761 18.7098C12.1425 18.5252 12.2504 18.3538 12.3935 18.2053L20.0093 10.3291L12.6655 2.43816C12.5243 2.28785 12.4188 2.1149 12.3552 1.92925C12.2916 1.7436 12.271 1.54892 12.2947 1.35638C12.3184 1.16384 12.3859 0.977246 12.4933 0.807324C12.6007 0.637403 12.7458 0.487503 12.9205 0.36624C13.0964 0.232467 13.3023 0.131564 13.5255 0.0698637C13.7486 0.00816314 13.9841 -0.0130023 14.2172 0.00769467C14.4502 0.0283916 14.6758 0.0905046 14.8798 0.190136C15.0837 0.289767 15.2617 0.424764 15.4024 0.586657L23.6132 9.40332C23.8632 9.66625 23.9999 9.99605 23.9999 10.3364C23.9999 10.6768 23.8632 11.0066 23.6132 11.2695L15.1134 20.0862C14.9429 20.264 14.7262 20.4046 14.4811 20.4965C14.236 20.5884 13.9692 20.6291 13.7025 20.6152Z" fill="#6A98BF"/>
</svg>
