<svg width="30" height="39" viewBox="0 0 30 39" fill="none" xmlns="http://www.w3.org/2000/svg">
<path d="M20.7851 0C25.6943 0 29.6615 2.08642 29.7158 7.39021V36.9901C29.7158 37.3216 29.6433 37.653 29.4984 37.9455C29.2629 38.4135 28.8644 38.7645 28.3753 38.9205C27.9043 39.0765 27.379 38.9985 26.9442 38.7255L15.2057 32.4077L3.44906 38.7255C3.17915 38.8795 2.86938 38.979 2.56143 38.979C1.54699 38.979 0.731812 38.082 0.731812 36.9901V7.39021C0.731812 2.08642 4.71711 0 9.60816 0H20.7851ZM22.0169 11.7775H8.37634C7.5974 11.7775 6.96337 12.46 6.96337 13.318C6.96337 14.174 7.5974 14.8584 8.37634 14.8584H22.0169C22.7959 14.8584 23.4299 14.174 23.4299 13.318C23.4299 12.46 22.7959 11.7775 22.0169 11.7775Z" fill="#6A98BF"/>
</svg>
