<svg width="35" height="43" viewBox="0 0 35 43" fill="none" xmlns="http://www.w3.org/2000/svg">
<path fill-rule="evenodd" clip-rule="evenodd" d="M24.1264 0.312988C30.9104 0.312988 34.8024 3.67099 34.8024 9.52099V38.593C34.8024 39.813 34.1744 40.911 33.1184 41.525C32.0664 42.141 30.7984 42.153 29.7344 41.553L17.8144 34.819L5.78437 41.567C5.26437 41.859 4.69437 42.007 4.12237 42.007C3.53237 42.007 2.94237 41.849 2.40637 41.533C1.35237 40.919 0.724365 39.821 0.724365 38.603V9.15499C0.724365 3.53499 4.61837 0.312988 11.4084 0.312988H24.1264ZM24.1264 3.31299H11.4084C6.31037 3.31299 3.72437 5.27699 3.72437 9.15499V38.603C3.72437 38.791 3.83237 38.893 3.92237 38.945C4.01237 39.001 4.15437 39.041 4.31837 38.949L17.0824 31.789C17.5384 31.535 18.0964 31.533 18.5544 31.791L31.2084 38.939C31.3744 39.035 31.5164 38.991 31.6064 38.937C31.6964 38.883 31.8024 38.781 31.8024 38.593L31.8016 9.29308C31.7865 7.57174 31.4535 3.31299 24.1264 3.31299ZM25.004 13.77C25.832 13.77 26.504 14.442 26.504 15.27C26.504 16.098 25.832 16.77 25.004 16.77H10.368C9.53996 16.77 8.86796 16.098 8.86796 15.27C8.86796 14.442 9.53996 13.77 10.368 13.77H25.004Z" fill="#6A98BF"/>
</svg>
