<svg width="20" height="20" viewBox="0 0 20 20" fill="none" xmlns="http://www.w3.org/2000/svg">
<path d="M5.91997 11.4695C7.32996 11.4695 8.45996 12.6105 8.45996 14.0305V17.4394C8.45996 18.8494 7.32996 19.9994 5.91997 19.9994H2.53999C1.13999 19.9994 0 18.8494 0 17.4394V14.0305C0 12.6105 1.13999 11.4695 2.53999 11.4695H5.91997ZM17.46 11.4695C18.86 11.4695 20 12.6105 20 14.0305V17.4394C20 18.8494 18.86 19.9994 17.46 19.9994H14.08C12.67 19.9994 11.54 18.8494 11.54 17.4394V14.0305C11.54 12.6105 12.67 11.4695 14.08 11.4695H17.46ZM5.91997 0C7.32996 0 8.45996 1.14998 8.45996 2.56096V5.96991C8.45996 7.38989 7.32996 8.52987 5.91997 8.52987H2.53999C1.13999 8.52987 0 7.38989 0 5.96991V2.56096C0 1.14998 1.13999 0 2.53999 0H5.91997ZM17.46 0C18.86 0 20 1.14998 20 2.56096V5.96991C20 7.38989 18.86 8.52987 17.46 8.52987H14.08C12.67 8.52987 11.54 7.38989 11.54 5.96991V2.56096C11.54 1.14998 12.67 0 14.08 0H17.46Z" fill="black"/>
</svg>
