<svg width="20" height="20" viewBox="0 0 37 41" fill="none" xmlns="http://www.w3.org/2000/svg">
<path d="M25.6174 0.290044C26.4665 0.288049 27.1379 0.947719 27.1399 1.82728L27.1419 3.32653C32.6512 3.75831 36.2904 7.51243 36.2964 13.2695L36.3181 30.1211C36.326 36.398 32.3826 40.26 26.0617 40.27L10.6219 40.29C4.34052 40.298 0.347762 36.344 0.339863 30.0491L0.318128 13.3955C0.310243 7.60039 3.82118 3.85626 9.33047 3.35052L9.3285 1.85127C9.32652 0.971707 9.97816 0.310038 10.847 0.310038C11.7159 0.308039 12.3675 0.967709 12.3695 1.84727L12.3714 3.24657L24.1009 3.23058L24.0989 1.83128C24.0969 0.951717 24.7486 0.292047 25.6174 0.290044ZM26.4231 28.6738H26.4033C25.495 28.6958 24.7664 29.4574 24.7861 30.377C24.7881 31.2965 25.5207 32.0541 26.429 32.0741C27.3551 32.0721 28.1055 31.3105 28.1035 30.371C28.1035 29.4315 27.3512 28.6738 26.4231 28.6738ZM10.1519 28.6758C9.24359 28.7158 8.53271 29.4774 8.53468 30.397C8.57615 31.3165 9.32652 32.0361 10.2349 31.9942C11.1254 31.9542 11.8343 31.1926 11.7929 30.273C11.7731 29.3735 11.0405 28.6738 10.1519 28.6758ZM18.2875 28.6658C17.3792 28.7078 16.6703 29.4674 16.6703 30.387C16.7117 31.3065 17.4621 32.0242 18.3704 31.9842C19.259 31.9422 19.9699 31.1826 19.9284 30.261C19.9087 29.3635 19.1761 28.6638 18.2875 28.6658ZM10.1421 21.4794C9.23371 21.5194 8.52481 22.281 8.52678 23.2006C8.56628 24.1201 9.31862 24.8398 10.227 24.7978C11.1156 24.7578 11.8245 23.9962 11.783 23.0766C11.7632 22.1771 11.0326 21.4774 10.1421 21.4794ZM18.2796 21.4095C17.3713 21.4494 16.6604 22.2111 16.6624 23.1306C16.7019 24.0501 17.4542 24.7678 18.3625 24.7278C19.2511 24.6858 19.96 23.9262 19.9205 23.0067C19.8988 22.1071 19.1682 21.4075 18.2796 21.4095ZM26.4152 21.4195C25.5069 21.4395 24.796 22.1791 24.7979 23.0986V23.1206C24.8177 24.0402 25.5681 24.7378 26.4784 24.7178C27.367 24.6958 28.0759 23.9342 28.0561 23.0147C28.0147 22.1351 27.3018 21.4175 26.4152 21.4195ZM24.1048 6.30903L12.3754 6.32503L12.3774 7.94222C12.3774 8.80378 11.7277 9.48344 10.8589 9.48344C9.99001 9.48544 9.3364 8.80778 9.3364 7.94621L9.33442 6.40698C5.48384 6.79279 3.35319 9.05566 3.3591 13.3915L3.36109 14.0132L33.2574 13.9732V13.2735C33.1725 8.9757 31.0161 6.72083 27.1458 6.385L27.1478 7.92422C27.1478 8.78379 26.4784 9.46545 25.6293 9.46545C24.7604 9.46745 24.1068 8.78779 24.1068 7.92822L24.1048 6.30903Z" fill="#6A98BF"/>
</svg>
