<svg width="580" height="156" viewBox="0 0 580 156" fill="none" xmlns="http://www.w3.org/2000/svg">
<path d="M75.1083 15.2479C75.4025 14.8088 75.4817 14.3388 75.3387 13.88L66.2668 19.7407L66 19.6717L84.1924 0H84.6533C84.6533 0.545914 84.6533 1.08556 84.6533 1.63147C84.8716 6.91491 85.098 12.1963 85.3325 17.4755C85.5144 21.4789 85.5629 25.4885 85.9995 29.4856C86.022 30.9288 85.293 32.3485 83.8892 33.5957C81.5727 36.0491 79.329 38.5277 77.061 41H76.5395C76.5395 39.3497 76.6001 37.6869 76.5395 36.0366C76.2484 29.2053 75.9331 22.372 75.5935 15.5366C75.5664 15.4424 75.509 15.3512 75.4236 15.2668C75.3145 15.342 75.2053 15.342 75.1083 15.2479Z" fill="black"/>
<path fill-rule="evenodd" clip-rule="evenodd" d="M64.5613 31.1594C66.0088 27.4674 67.4091 23.7517 68.697 19.9948C68.7443 19.853 68.6911 19.7939 68.5316 19.8117C68.5021 19.8828 68.4721 19.9535 68.4421 20.024C68.3702 20.1933 68.2988 20.3613 68.2362 20.5323C65.6425 27.4024 62.907 34.1898 59.7343 40.8058C58.0459 44.5425 55.9938 48.104 53.6076 51.4388C52.8279 52.597 51.8379 53.5989 50.6889 54.3924C49.5546 55.1071 48.8456 55.0008 47.9417 54.0261C47.3697 53.3692 46.8924 52.6355 46.5237 51.8464C45.1133 49.0162 44.1584 46.0208 43.2028 43.0233C43.0016 42.392 42.8003 41.7607 42.5948 41.1307C42.372 40.4444 42.1747 39.7393 41.9779 39.036C41.7207 38.1168 41.4645 37.2008 41.1532 36.3341C40.6037 34.8041 39.3335 34.3434 37.8328 34.9754C36.9985 35.3645 36.248 35.9122 35.6231 36.5881C33.4825 38.8525 31.591 41.3398 29.9808 44.0075C26.9559 48.6978 24.2145 53.5536 21.5085 58.4329C21.2958 58.8228 21.1895 58.9705 20.8055 58.5688C20.0976 57.8372 19.2359 57.2722 18.2827 56.9147C13.8279 55.2725 9.98171 56.4481 6.6436 59.5671C4.34532 61.7114 2.92736 64.4523 1.74573 67.335C0.286409 70.9916 -0.404842 74.8372 0.245056 78.671C0.894954 82.5047 3.61271 85.3224 7.33485 85.8659C8.8656 86.1156 10.433 86.0157 11.9197 85.5738C13.4064 85.1318 14.7737 84.3593 15.9194 83.314C18.2389 81.3124 20.1059 78.8403 21.3965 76.0619C22.6871 73.2835 23.3718 70.2624 23.4051 67.1992C23.4225 65.1814 23.8675 63.1902 24.7108 61.357C24.8147 61.1321 24.9187 60.9073 25.0226 60.6824C27.8894 54.4799 30.7551 48.2799 34.347 42.4539C35.3349 40.6807 36.5658 39.0543 38.0041 37.6218C39.0144 36.6944 39.0853 36.724 39.5048 38.0176C40.8684 42.283 42.462 46.4714 44.2786 50.5645C44.8886 52.0207 45.6957 53.3862 46.6773 54.6227C48.1366 56.3654 49.8086 56.5662 51.6284 55.2135C51.7997 55.0894 51.9651 54.9536 52.1246 54.8118C54.1039 53.0042 55.4628 50.7358 56.733 48.4202C59.714 42.8424 62.3289 37.0766 64.5613 31.1594ZM8.74986 63.5965C7.03433 67.4947 6.11613 71.7708 6.06182 76.1149C6.06182 76.2486 6.05894 76.3833 6.05606 76.5181C6.05029 76.7876 6.04453 77.0571 6.06182 77.318C6.17418 78.7916 6.38594 80.2265 7.3583 81.3619C7.75899 81.874 8.30801 82.2121 8.90926 82.3172C9.5105 82.4224 10.1257 82.2877 10.647 81.9369C11.5191 81.3784 12.2357 80.5606 12.7171 79.5742C14.1871 76.6704 15.1286 73.4701 15.4873 70.1577C15.5006 70.0534 15.5146 69.9489 15.5287 69.8444C15.6515 68.9325 15.7753 68.0135 15.4224 67.0945C15.3793 66.9167 15.3686 66.7309 15.3909 66.5484C15.4131 66.3658 15.468 66.19 15.5521 66.0316C15.6191 65.8983 15.6575 65.7494 15.6644 65.5968C15.565 64.1811 15.3533 62.7993 14.584 61.6204C14.2162 61.0534 13.6811 60.6498 13.073 60.4809C12.465 60.3121 11.8231 60.3888 11.2607 60.6976C10.1537 61.3173 9.26826 62.3396 8.74986 63.5965Z" fill="black"/>
<path d="M359.364 127.7C360.012 126.332 361.008 125.216 362.352 124.352C363.72 123.488 365.328 123.056 367.176 123.056C368.976 123.056 370.584 123.476 372 124.316C373.416 125.132 374.52 126.308 375.312 127.844C376.128 129.356 376.536 131.12 376.536 133.136C376.536 135.152 376.128 136.928 375.312 138.464C374.52 140 373.404 141.188 371.964 142.028C370.548 142.868 368.952 143.288 367.176 143.288C365.304 143.288 363.684 142.868 362.316 142.028C360.972 141.164 359.988 140.048 359.364 138.68V143H356.88V116.36H359.364V127.7ZM373.98 133.136C373.98 131.504 373.656 130.1 373.008 128.924C372.384 127.724 371.52 126.812 370.416 126.188C369.312 125.564 368.064 125.252 366.672 125.252C365.328 125.252 364.092 125.576 362.964 126.224C361.86 126.872 360.984 127.796 360.336 128.996C359.688 130.196 359.364 131.588 359.364 133.172C359.364 134.756 359.688 136.148 360.336 137.348C360.984 138.548 361.86 139.472 362.964 140.12C364.092 140.768 365.328 141.092 366.672 141.092C368.064 141.092 369.312 140.78 370.416 140.156C371.52 139.508 372.384 138.584 373.008 137.384C373.656 136.16 373.98 134.744 373.98 133.136ZM397.373 123.344L385.709 152.252H383.081L386.897 142.892L378.833 123.344H381.605L388.301 140.12L394.781 123.344H397.373ZM413.189 119.888V129.284H422.729V131.372H413.189V140.912H423.809V143H410.669V117.8H423.809V119.888H413.189ZM427.623 133.172C427.623 131.132 428.031 129.356 428.847 127.844C429.663 126.308 430.791 125.132 432.231 124.316C433.671 123.476 435.315 123.056 437.163 123.056C439.587 123.056 441.579 123.656 443.139 124.856C444.723 126.056 445.743 127.688 446.199 129.752H443.499C443.163 128.336 442.431 127.232 441.303 126.44C440.199 125.624 438.819 125.216 437.163 125.216C435.843 125.216 434.655 125.516 433.599 126.116C432.543 126.716 431.703 127.616 431.079 128.816C430.479 129.992 430.179 131.444 430.179 133.172C430.179 134.9 430.479 136.364 431.079 137.564C431.703 138.764 432.543 139.664 433.599 140.264C434.655 140.864 435.843 141.164 437.163 141.164C438.819 141.164 440.199 140.768 441.303 139.976C442.431 139.16 443.163 138.032 443.499 136.592H446.199C445.743 138.608 444.723 140.228 443.139 141.452C441.555 142.676 439.563 143.288 437.163 143.288C435.315 143.288 433.671 142.88 432.231 142.064C430.791 141.224 429.663 140.048 428.847 138.536C428.031 137 427.623 135.212 427.623 133.172ZM468.637 132.164C468.637 133.028 468.613 133.688 468.565 134.144H452.257C452.329 135.632 452.689 136.904 453.337 137.96C453.985 139.016 454.837 139.82 455.893 140.372C456.949 140.9 458.101 141.164 459.349 141.164C460.981 141.164 462.349 140.768 463.453 139.976C464.581 139.184 465.325 138.116 465.685 136.772H468.349C467.869 138.692 466.837 140.264 465.253 141.488C463.693 142.688 461.725 143.288 459.349 143.288C457.501 143.288 455.845 142.88 454.381 142.064C452.917 141.224 451.765 140.048 450.925 138.536C450.109 137 449.701 135.212 449.701 133.172C449.701 131.132 450.109 129.344 450.925 127.808C451.741 126.272 452.881 125.096 454.345 124.28C455.809 123.464 457.477 123.056 459.349 123.056C461.221 123.056 462.853 123.464 464.245 124.28C465.661 125.096 466.741 126.2 467.485 127.592C468.253 128.96 468.637 130.484 468.637 132.164ZM466.081 132.092C466.105 130.628 465.805 129.38 465.181 128.348C464.581 127.316 463.753 126.536 462.697 126.008C461.641 125.48 460.489 125.216 459.241 125.216C457.369 125.216 455.773 125.816 454.453 127.016C453.133 128.216 452.401 129.908 452.257 132.092H466.081ZM475.767 116.36V143H473.247V116.36H475.767ZM483.994 116.36V143H481.474V116.36H483.994ZM502.099 117.836V143H499.579V117.836H502.099ZM510.326 117.836V143H507.806V117.836H510.326ZM518.552 117.836V143H516.032V117.836H518.552ZM538.983 117.836V119.924H531.999V143H529.479V119.924H522.459V117.836H538.983ZM550.414 117.836C553.198 117.836 555.586 118.34 557.578 119.348C559.57 120.356 561.094 121.808 562.15 123.704C563.206 125.6 563.734 127.856 563.734 130.472C563.734 133.064 563.206 135.308 562.15 137.204C561.094 139.076 559.57 140.516 557.578 141.524C555.586 142.508 553.198 143 550.414 143H542.962V117.836H550.414ZM550.414 140.912C553.918 140.912 556.582 140 558.406 138.176C560.254 136.328 561.178 133.76 561.178 130.472C561.178 127.16 560.254 124.58 558.406 122.732C556.582 120.86 553.918 119.924 550.414 119.924H545.482V140.912H550.414Z" fill="black"/>
<path d="M128.84 70.664H149.512V77H120.2V71.304L140.808 38.856H120.2V32.52H149.512V38.216L128.84 70.664ZM189.808 58.504C189.808 59.8267 189.722 61.0213 189.552 62.088H162.608C162.821 64.904 163.866 67.1653 165.744 68.872C167.621 70.5787 169.925 71.432 172.656 71.432C176.581 71.432 179.354 69.7893 180.976 66.504H188.847C187.781 69.7467 185.84 72.4133 183.024 74.504C180.25 76.552 176.794 77.576 172.656 77.576C169.285 77.576 166.256 76.8293 163.568 75.336C160.922 73.8 158.832 71.6667 157.296 68.936C155.802 66.1627 155.056 62.9627 155.056 59.336C155.056 55.7093 155.781 52.5307 157.232 49.8C158.725 47.0267 160.794 44.8933 163.44 43.4C166.128 41.9067 169.2 41.16 172.656 41.16C175.984 41.16 178.949 41.8853 181.552 43.336C184.154 44.7867 186.181 46.8347 187.632 49.48C189.082 52.0827 189.808 55.0907 189.808 58.504ZM182.192 56.2C182.149 53.512 181.189 51.3573 179.312 49.736C177.434 48.1147 175.109 47.304 172.336 47.304C169.818 47.304 167.664 48.1147 165.872 49.736C164.08 51.3147 163.013 53.4693 162.672 56.2H182.192ZM204.284 46.856C205.35 45.064 206.758 43.6773 208.508 42.696C210.3 41.672 212.412 41.16 214.844 41.16V48.712H212.988C210.129 48.712 207.953 49.4373 206.46 50.888C205.009 52.3387 204.284 54.856 204.284 58.44V77H196.988V41.736H204.284V46.856ZM236.846 77.576C233.518 77.576 230.51 76.8293 227.822 75.336C225.134 73.8 223.022 71.6667 221.486 68.936C219.95 66.1627 219.182 62.9627 219.182 59.336C219.182 55.752 219.971 52.5733 221.55 49.8C223.129 47.0267 225.283 44.8933 228.014 43.4C230.745 41.9067 233.795 41.16 237.166 41.16C240.537 41.16 243.587 41.9067 246.318 43.4C249.049 44.8933 251.203 47.0267 252.782 49.8C254.361 52.5733 255.15 55.752 255.15 59.336C255.15 62.92 254.339 66.0987 252.718 68.872C251.097 71.6453 248.878 73.8 246.062 75.336C243.289 76.8293 240.217 77.576 236.846 77.576ZM236.846 71.24C238.723 71.24 240.473 70.792 242.094 69.896C243.758 69 245.102 67.656 246.126 65.864C247.15 64.072 247.662 61.896 247.662 59.336C247.662 56.776 247.171 54.6213 246.19 52.872C245.209 51.08 243.907 49.736 242.286 48.84C240.665 47.944 238.915 47.496 237.038 47.496C235.161 47.496 233.411 47.944 231.79 48.84C230.211 49.736 228.953 51.08 228.014 52.872C227.075 54.6213 226.606 56.776 226.606 59.336C226.606 63.1333 227.566 66.0773 229.486 68.168C231.449 70.216 233.902 71.24 236.846 71.24ZM265.435 67.08C269.531 63.5387 272.752 60.6373 275.099 58.376C277.488 56.072 279.472 53.6827 281.051 51.208C282.629 48.7333 283.419 46.2587 283.419 43.784C283.419 41.224 282.8 39.2187 281.563 37.768C280.368 36.3173 278.469 35.592 275.867 35.592C273.349 35.592 271.387 36.4027 269.979 38.024C268.613 39.6027 267.888 41.736 267.803 44.424H260.763C260.891 39.56 262.341 35.848 265.115 33.288C267.931 30.6853 271.493 29.384 275.803 29.384C280.453 29.384 284.08 30.664 286.683 33.224C289.328 35.784 290.651 39.1973 290.651 43.464C290.651 46.536 289.861 49.5013 288.283 52.36C286.747 55.176 284.891 57.7147 282.715 59.976C280.581 62.1947 277.851 64.776 274.523 67.72L271.643 70.28H291.931V76.36H260.827V71.048L265.435 67.08ZM319.588 77.448C315.449 77.448 311.631 76.488 308.132 74.568C304.676 72.6053 301.924 69.896 299.876 66.44C297.871 62.9413 296.868 59.016 296.868 54.664C296.868 50.312 297.871 46.408 299.876 42.952C301.924 39.496 304.676 36.808 308.132 34.888C311.631 32.9253 315.449 31.944 319.588 31.944C323.769 31.944 327.588 32.9253 331.044 34.888C334.543 36.808 337.295 39.496 339.3 42.952C341.305 46.408 342.308 50.312 342.308 54.664C342.308 59.016 341.305 62.9413 339.3 66.44C337.295 69.896 334.543 72.6053 331.044 74.568C327.588 76.488 323.769 77.448 319.588 77.448ZM319.588 71.112C322.532 71.112 325.156 70.4507 327.46 69.128C329.764 67.7627 331.556 65.8427 332.836 63.368C334.159 60.8507 334.82 57.9493 334.82 54.664C334.82 51.3787 334.159 48.4987 332.836 46.024C331.556 43.5493 329.764 41.6507 327.46 40.328C325.156 39.0053 322.532 38.344 319.588 38.344C316.644 38.344 314.02 39.0053 311.716 40.328C309.412 41.6507 307.599 43.5493 306.276 46.024C304.996 48.4987 304.356 51.3787 304.356 54.664C304.356 57.9493 304.996 60.8507 306.276 63.368C307.599 65.8427 309.412 67.7627 311.716 69.128C314.02 70.4507 316.644 71.112 319.588 71.112ZM367.28 41.16C370.053 41.16 372.528 41.736 374.704 42.888C376.922 44.04 378.65 45.7467 379.888 48.008C381.125 50.2693 381.744 53 381.744 56.2V77H374.512V57.288C374.512 54.1307 373.722 51.72 372.144 50.056C370.565 48.3493 368.41 47.496 365.68 47.496C362.949 47.496 360.773 48.3493 359.152 50.056C357.573 51.72 356.784 54.1307 356.784 57.288V77H349.488V41.736H356.784V45.768C357.978 44.3173 359.493 43.1867 361.328 42.376C363.205 41.5653 365.189 41.16 367.28 41.16ZM423.37 58.504C423.37 59.8267 423.285 61.0213 423.114 62.088H396.17C396.383 64.904 397.429 67.1653 399.306 68.872C401.183 70.5787 403.487 71.432 406.218 71.432C410.143 71.432 412.917 69.7893 414.538 66.504H422.41C421.343 69.7467 419.402 72.4133 416.586 74.504C413.813 76.552 410.357 77.576 406.218 77.576C402.847 77.576 399.818 76.8293 397.13 75.336C394.485 73.8 392.394 71.6667 390.858 68.936C389.365 66.1627 388.618 62.9627 388.618 59.336C388.618 55.7093 389.343 52.5307 390.794 49.8C392.287 47.0267 394.357 44.8933 397.002 43.4C399.69 41.9067 402.762 41.16 406.218 41.16C409.546 41.16 412.511 41.8853 415.114 43.336C417.717 44.7867 419.743 46.8347 421.194 49.48C422.645 52.0827 423.37 55.0907 423.37 58.504ZM415.754 56.2C415.711 53.512 414.751 51.3573 412.874 49.736C410.997 48.1147 408.671 47.304 405.898 47.304C403.381 47.304 401.226 48.1147 399.434 49.736C397.642 51.3147 396.575 53.4693 396.234 56.2H415.754Z" fill="#0044A3"/>
</svg>
