<svg width="48" height="24" viewBox="0 0 48 44" fill="none" xmlns="http://www.w3.org/2000/svg">
<path d="M35.8536 0C39.072 0 42.168 1.29556 44.4456 3.62022C46.7256 5.94 48 9.06889 48 12.3444V31.6556C48 38.4756 42.552 44 35.8536 44H12.144C5.4456 44 0 38.4756 0 31.6556V12.3444C0 5.52445 5.4216 0 12.144 0H35.8536ZM38.568 12.7111C38.064 12.6842 37.584 12.8578 37.2216 13.2L26.4 22C25.008 23.1758 23.0136 23.1758 21.6 22L10.8 13.2C10.0536 12.6378 9.0216 12.7111 8.4 13.3711C7.752 14.0311 7.68 15.0822 8.2296 15.8156L8.544 16.1333L19.464 24.8111C20.808 25.8867 22.4376 26.4733 24.144 26.4733C25.8456 26.4733 27.504 25.8867 28.8456 24.8111L39.672 15.9867L39.864 15.7911C40.4376 15.0822 40.4376 14.0556 39.8376 13.3467C39.504 12.9824 39.0456 12.76 38.568 12.7111Z" fill="#6A98BF"/>
</svg>
