<svg width="55" height="50" viewBox="0 0 55 50" fill="none" xmlns="http://www.w3.org/2000/svg">
<path d="M47.9261 9.16024C48.1172 8.91456 48.1686 8.6516 48.0758 8.39488L42.1836 11.674L42.0103 11.6354L53.8262 0.628906H54.1256C54.1256 0.934349 54.1256 1.23628 54.1256 1.54173C54.2674 4.49785 54.4144 7.45281 54.5667 10.4066C54.6849 12.6465 54.7164 14.8899 54.9999 17.1263C55.0146 17.9338 54.5411 18.7282 53.6293 19.4259C52.1247 20.7987 50.6674 22.1855 49.1944 23.5687H48.8556C48.8556 22.6454 48.895 21.715 48.8556 20.7917C48.6666 16.9695 48.4618 13.1462 48.2412 9.32175C48.2236 9.26904 48.1863 9.218 48.1309 9.17078C48.06 9.2129 47.9891 9.21291 47.9261 9.16024Z" fill="black"/>
<path fill-rule="evenodd" clip-rule="evenodd" d="M41.2894 18.4536C42.2151 16.3416 43.1106 14.2161 43.9343 12.067C43.9646 11.9859 43.9306 11.9521 43.8286 11.9622C43.8097 12.0029 43.7905 12.0433 43.7714 12.0836C43.7253 12.1804 43.6797 12.2766 43.6396 12.3745C41.9809 16.3045 40.2314 20.1871 38.2024 23.9718C37.1226 26.1094 35.8101 28.1467 34.2841 30.0544C33.7854 30.7169 33.1523 31.29 32.4175 31.744C31.692 32.1528 31.2386 32.092 30.6605 31.5345C30.2947 31.1587 29.9894 30.739 29.7537 30.2875C28.8516 28.6686 28.241 26.955 27.6298 25.2403C27.5011 24.8792 27.3724 24.518 27.241 24.1577C27.0985 23.7651 26.9723 23.3618 26.8465 22.9594C26.682 22.4336 26.5181 21.9096 26.319 21.4138C25.9676 20.5386 25.1552 20.275 24.1955 20.6366C23.6619 20.8591 23.182 21.1725 22.7823 21.5591C21.4133 22.8544 20.2036 24.2773 19.1739 25.8034C17.2393 28.4864 15.4861 31.2641 13.7555 34.0553C13.6195 34.2784 13.5515 34.3628 13.3059 34.1331C12.8532 33.7146 12.3021 33.3914 11.6925 33.1869C8.84348 32.2475 6.38368 32.9199 4.24883 34.7041C2.779 35.9308 1.87216 37.4987 1.11646 39.1478C0.18317 41.2395 -0.258912 43.4393 0.156723 45.6324C0.572357 47.8255 2.31046 49.4374 4.69092 49.7483C5.66989 49.8911 6.67231 49.834 7.62309 49.5812C8.57387 49.3283 9.44836 48.8864 10.1811 48.2885C11.6645 47.1435 12.8585 45.7293 13.6839 44.1399C14.5093 42.5506 14.9472 40.8224 14.9684 39.07C14.9796 37.9158 15.2642 36.7767 15.8035 35.728C15.87 35.5994 15.9364 35.4708 16.0029 35.3422C17.8363 31.794 19.669 28.2473 21.9662 24.9146C22.598 23.9003 23.3852 22.9699 24.3051 22.1504C24.9512 21.6199 24.9965 21.6368 25.2648 22.3769C26.1369 24.8168 27.1561 27.2128 28.3178 29.5542C28.7079 30.3872 29.2241 31.1684 29.8519 31.8757C30.7852 32.8726 31.8545 32.9875 33.0183 32.2137C33.1279 32.1427 33.2337 32.065 33.3357 31.9839C34.6015 30.9499 35.4705 29.6522 36.2829 28.3276C38.1893 25.1368 39.8617 21.8385 41.2894 18.4536ZM5.59584 37.009C4.4987 39.239 3.91147 41.6851 3.87674 44.1701C3.87674 44.2466 3.8749 44.3237 3.87305 44.4008C3.86937 44.5549 3.86568 44.7091 3.87674 44.8583C3.9486 45.7013 4.08403 46.5222 4.70589 47.1717C4.96215 47.4646 5.31327 47.658 5.69778 47.7182C6.0823 47.7783 6.47572 47.7013 6.80917 47.5006C7.3669 47.1811 7.82516 46.7132 8.13305 46.149C9.07318 44.4879 9.67528 42.6572 9.90466 40.7623C9.91319 40.7027 9.92218 40.6429 9.93118 40.5831C10.0097 40.0614 10.0889 39.5357 9.8632 39.0101C9.83564 38.9083 9.82877 38.8021 9.84301 38.6976C9.85725 38.5932 9.89232 38.4927 9.94612 38.402C9.98895 38.3257 10.0135 38.2406 10.018 38.1533C9.95441 37.3435 9.81898 36.553 9.32702 35.8786C9.0918 35.5542 8.74955 35.3234 8.36067 35.2268C7.97179 35.1302 7.56129 35.1741 7.20163 35.3507C6.49367 35.7052 5.92738 36.29 5.59584 37.009Z" fill="black"/>
</svg>
