<svg width="35" height="42" viewBox="0 0 48 42" fill="none" xmlns="http://www.w3.org/2000/svg">
<path d="M4.17737 18.7837H45.9133C46.4667 18.7837 46.9975 19.0035 47.3888 19.3949C47.7802 19.7862 48.0001 20.317 48.0001 20.8705C48.0001 21.4239 47.7802 21.9547 47.3888 22.3461C46.9975 22.7374 46.4667 22.9573 45.9133 22.9573H4.17737C3.62392 22.9573 3.09313 22.7374 2.70178 22.3461C2.31043 21.9547 2.09058 21.4239 2.09058 20.8705C2.09058 20.317 2.31043 19.7862 2.70178 19.3949C3.09313 19.0035 3.62392 18.7837 4.17737 18.7837Z" fill="#4175A2"/>
<path d="M5.04125 20.8706L22.3491 38.1743C22.741 38.5661 22.9611 39.0976 22.9611 39.6517C22.9611 40.2059 22.741 40.7373 22.3491 41.1292C21.9573 41.521 21.4258 41.7412 20.8717 41.7412C20.3175 41.7412 19.7861 41.521 19.3942 41.1292L0.613074 22.348C0.418738 22.1542 0.264554 21.9239 0.159353 21.6704C0.0541517 21.4169 0 21.1451 0 20.8706C0 20.5961 0.0541517 20.3243 0.159353 20.0708C0.264554 19.8173 0.418738 19.587 0.613074 19.3931L19.3942 0.611979C19.7861 0.220135 20.3175 0 20.8717 0C21.4258 0 21.9573 0.220135 22.3491 0.611979C22.741 1.00382 22.9611 1.53528 22.9611 2.08943C22.9611 2.64358 22.741 3.17504 22.3491 3.56688L5.04125 20.8706Z" fill="#4175A2"/>
</svg>
