<svg width="629" height="41" viewBox="0 0 629 41" fill="none" xmlns="http://www.w3.org/2000/svg">
<circle cx="23.0153" cy="20.0153" r="20.0153" fill="#49D24F"/>
<path d="M19.8315 14.12V12.08H24.6795V29H22.3755V14.12H19.8315Z" fill="white"/>
<circle cx="604.413" cy="20.0153" r="20.0153" fill="#E3E3E3"/>
<path d="M604.324 11.624C605.412 11.624 606.348 11.816 607.132 12.2C607.916 12.584 608.508 13.112 608.908 13.784C609.308 14.456 609.508 15.216 609.508 16.064C609.508 17.12 609.196 18.008 608.572 18.728C607.964 19.448 607.068 19.88 605.884 20.024V20.168C607.116 20.488 608.076 20.984 608.764 21.656C609.468 22.328 609.82 23.256 609.82 24.44C609.82 25.832 609.356 26.968 608.428 27.848C607.5 28.728 606.164 29.168 604.42 29.168C602.676 29.168 601.26 28.72 600.172 27.824C599.1 26.912 598.468 25.584 598.276 23.84H600.436C600.58 24.896 600.98 25.736 601.636 26.36C602.308 26.984 603.212 27.296 604.348 27.296C605.42 27.296 606.244 27.024 606.82 26.48C607.396 25.92 607.684 25.2 607.684 24.32C607.684 23.264 607.268 22.464 606.436 21.92C605.62 21.36 604.452 21.08 602.932 21.08H602.356V19.256H602.932C605.876 19.256 607.348 18.272 607.348 16.304C607.348 15.44 607.076 14.752 606.532 14.24C605.988 13.728 605.236 13.472 604.276 13.472C603.316 13.472 602.508 13.752 601.852 14.312C601.196 14.856 600.812 15.664 600.7 16.736H598.564C598.676 15.136 599.228 13.888 600.22 12.992C601.228 12.08 602.596 11.624 604.324 11.624Z" fill="#B4B4B4"/>
<circle cx="316.413" cy="20.0153" r="20.0153" fill="#E3E3E3"/>
<path d="M310.449 27.32C313.169 25.496 315.345 23.688 316.977 21.896C318.609 20.088 319.425 18.408 319.425 16.856C319.425 15.896 319.177 15.128 318.681 14.552C318.201 13.96 317.417 13.664 316.329 13.664C315.209 13.664 314.361 14.024 313.785 14.744C313.209 15.448 312.889 16.424 312.825 17.672H310.665C310.777 15.784 311.361 14.336 312.417 13.328C313.473 12.304 314.833 11.792 316.497 11.792C318.081 11.792 319.337 12.216 320.265 13.064C321.193 13.912 321.657 15.112 321.657 16.664C321.657 17.944 321.241 19.248 320.409 20.576C319.593 21.888 318.561 23.112 317.313 24.248C316.081 25.368 314.809 26.32 313.497 27.104H322.089V28.904H310.449V27.32Z" fill="#B4B4B4"/>
<line x1="336.04" y1="21.085" x2="582.39" y2="20.2462" stroke="#E3E3E3" stroke-width="4" stroke-linecap="round" stroke-dasharray="33 33"/>
<line x1="44.9932" y1="18.8462" x2="291.343" y2="18.0074" stroke="#E3E3E3" stroke-width="4" stroke-linecap="round" stroke-dasharray="33 33"/>
</svg>
