<svg width="629" height="41" viewBox="0 0 629 41" fill="none" xmlns="http://www.w3.org/2000/svg">
<circle cx="23.0153" cy="20.0153" r="20.0153" fill="#49D24F"/>
<path d="M19.8315 14.12V12.08H24.6795V29H22.3755V14.12H19.8315Z" fill="white"/>
<circle cx="314.032" cy="20.0153" r="20.0153" fill="#49D24F"/>
<path d="M308.449 27.32C311.169 25.496 313.345 23.688 314.977 21.896C316.609 20.088 317.425 18.408 317.425 16.856C317.425 15.896 317.177 15.128 316.681 14.552C316.201 13.96 315.417 13.664 314.329 13.664C313.209 13.664 312.361 14.024 311.785 14.744C311.209 15.448 310.889 16.424 310.825 17.672H308.665C308.777 15.784 309.361 14.336 310.417 13.328C311.473 12.304 312.833 11.792 314.497 11.792C316.081 11.792 317.337 12.216 318.265 13.064C319.193 13.912 319.657 15.112 319.657 16.664C319.657 17.944 319.241 19.248 318.409 20.576C317.593 21.888 316.561 23.112 315.313 24.248C314.081 25.368 312.809 26.32 311.497 27.104H320.089V28.904H308.449V27.32Z" fill="white"/>
<circle cx="604.413" cy="20.0153" r="20.0153" fill="#49D24F"/>
<path d="M604.324 11.624C605.412 11.624 606.348 11.816 607.132 12.2C607.916 12.584 608.508 13.112 608.908 13.784C609.308 14.456 609.508 15.216 609.508 16.064C609.508 17.12 609.196 18.008 608.572 18.728C607.964 19.448 607.068 19.88 605.884 20.024V20.168C607.116 20.488 608.076 20.984 608.764 21.656C609.468 22.328 609.82 23.256 609.82 24.44C609.82 25.832 609.356 26.968 608.428 27.848C607.5 28.728 606.164 29.168 604.42 29.168C602.676 29.168 601.26 28.72 600.172 27.824C599.1 26.912 598.468 25.584 598.276 23.84H600.436C600.58 24.896 600.98 25.736 601.636 26.36C602.308 26.984 603.212 27.296 604.348 27.296C605.42 27.296 606.244 27.024 606.82 26.48C607.396 25.92 607.684 25.2 607.684 24.32C607.684 23.264 607.268 22.464 606.436 21.92C605.62 21.36 604.452 21.08 602.932 21.08H602.356V19.256H602.932C605.876 19.256 607.348 18.272 607.348 16.304C607.348 15.44 607.076 14.752 606.532 14.24C605.988 13.728 605.236 13.472 604.276 13.472C603.316 13.472 602.508 13.752 601.852 14.312C601.196 14.856 600.812 15.664 600.7 16.736H598.564C598.676 15.136 599.228 13.888 600.22 12.992C601.228 12.08 602.596 11.624 604.324 11.624Z" fill="white"/>
<line x1="42" y1="20" x2="296" y2="20" stroke="#49D24F" stroke-width="4" stroke-linecap="round"/>
<line x1="336" y1="20" x2="590" y2="20" stroke="#49D24F" stroke-width="4" stroke-linecap="round"/>
</svg>
