<svg width="30" height="30" viewBox="0 0 41 41" fill="none" xmlns="http://www.w3.org/2000/svg">
<path d="M26.9548 4.273C26.8748 4.773 26.8348 5.273 26.8348 5.773C26.8348 10.273 30.4748 13.911 34.9548 13.911C35.4548 13.911 35.9348 13.853 36.4348 13.773V29.911C36.4348 36.693 32.4348 40.713 25.6348 40.713H10.8568C4.05481 40.713 0.0548096 36.693 0.0548096 29.911V15.113C0.0548096 8.313 4.05481 4.273 10.8568 4.273H26.9548ZM27.3568 16.433C26.8148 16.373 26.2768 16.613 25.9548 17.053L21.1168 23.313L15.5748 18.953C15.2348 18.693 14.8348 18.591 14.4348 18.633C14.0368 18.693 13.6768 18.911 13.4348 19.231L7.51681 26.933L7.39481 27.113C7.05481 27.751 7.21481 28.571 7.81481 29.013C8.09481 29.193 8.39481 29.313 8.73481 29.313C9.19681 29.333 9.63481 29.091 9.91481 28.713L14.9348 22.251L20.6348 26.533L20.8148 26.651C21.4548 26.991 22.2548 26.833 22.7148 26.231L28.4948 18.773L28.4148 18.813C28.7348 18.373 28.7948 17.813 28.5748 17.313C28.3568 16.813 27.8748 16.473 27.3568 16.433ZM35.235 0.712402C37.895 0.712402 40.055 2.8724 40.055 5.5324C40.055 8.1924 37.895 10.3524 35.235 10.3524C32.575 10.3524 30.415 8.1924 30.415 5.5324C30.415 2.8724 32.575 0.712402 35.235 0.712402Z" fill="#6A98BF"/>
</svg>
